<svg xmlns="http://www.w3.org/2000/svg" viewBox="0 0 160 160" width="160" height="160">
  <defs>
    <linearGradient id="bg" x1="0%" y1="0%" x2="100%" y2="100%">
      <stop offset="0%" stop-color="#5B8DEF"/>
      <stop offset="100%" stop-color="#3D6BE0"/>
    </linearGradient>
  </defs>

  <rect x="4" y="4" width="152" height="152" rx="32" fill="url(#bg)"/>

  <!-- Memo sheet -->
  <rect x="28" y="24" width="88" height="112" rx="6" fill="white" opacity="0.95"/>
  <!-- Fold corner -->
  <path d="M102 24 L116 38 L116 24 Z" fill="white" opacity="0.95"/>
  <path d="M102 24 L116 38 H102 Z" fill="#3D6BE0" opacity="0.25"/>

  <!-- Text lines -->
  <rect x="40" y="46" width="60" height="5" rx="2.5" fill="#5B8DEF" opacity="0.65"/>
  <rect x="40" y="59" width="48" height="5" rx="2.5" fill="#5B8DEF" opacity="0.45"/>
  <rect x="40" y="72" width="54" height="5" rx="2.5" fill="#5B8DEF" opacity="0.35"/>
  <rect x="40" y="85" width="36" height="5" rx="2.5" fill="#5B8DEF" opacity="0.25"/>

  <!-- Calendar badge -->
  <rect x="90" y="88" width="48" height="48" rx="12" fill="white"/>
  <rect x="90" y="88" width="48" height="16" rx="12" fill="#EF5B5B"/>
  <rect x="90" y="97" width="48" height="7" fill="#EF5B5B"/>
  <text x="114" y="130" text-anchor="middle" font-family="system-ui,-apple-system,Helvetica,Arial,sans-serif" font-size="22" font-weight="800" fill="#333">M</text>

  <!-- Pen -->
  <g transform="translate(130,12) rotate(40)">
    <rect x="-5" y="0" width="10" height="38" rx="3" fill="white" opacity="0.95"/>
    <polygon points="-5,38 0,48 5,38" fill="white" opacity="0.95"/>
    <rect x="-5" y="0" width="10" height="9" rx="3" fill="#FFD53E"/>
    <rect x="-5" y="9" width="10" height="3" fill="#E8C235"/>
  </g>
</svg>
